<svg height="1332pt" preserveAspectRatio="xMidYMid meet" viewBox="0 0 1332 1332" width="1332pt" xmlns="http://www.w3.org/2000/svg"><g transform="matrix(.1 0 0 -.1 0 1332)"><path d="m6370 12004c-19-2-78-9-130-14-1356-151-2534-1116-2959-2423-104-322-154-602-171-969-6-117-10-1444-10-3138v-2936l-114-102c-220-197-449-474-611-736l-49-79 26-21c263-215 385-307 612-461 534-361 1110-635 1742-829 84-25 157-46 163-46 8 0 11 231 11 839v839l170-86 170-85v-798-797l68-16c571-128 1382-173 2008-111 260 26 630 83 757 116l37 10v797 797l170 86c93 48 171 84 174 81 4-3 6-380 6-839 0-603 3-833 11-833 21 0 314 93 459 145 283 103 440 170 720 310 462 230 851 483 1262 819l97 79-51 81c-173 279-412 565-637 760l-91 80v2980c0 1814-4 3048-10 3151-74 1291-811 2410-1968 2989-347 174-698 281-1118 342-103 15-654 28-744 18zm1020-1566c0-7 30-86 66-177 281-704 755-1329 1324-1748 157-115 344-229 485-294 39-18 72-36 75-40s40-19 83-33c146-49 263-146 331-275 64-122 66-140 66-588 0-402 0-402-25-482-59-184-209-328-400-381l-59-17-17-119c-68-491-261-943-565-1324-84-105-302-324-408-410-105-85-296-212-429-284l-107-58v-563c0-459-3-579-15-651-121-701-834-1129-1507-904-414 139-716 506-777 943-6 39-7 244-4 490 3 232 3 483-1 557l-8 136-101 51c-374 191-739 523-986 896-39 60-91 146-116 191l-45 83 2 1482 3 1483 185 67c280 102 439 171 725 311 579 286 1061 599 1534 997 131 110 551 526 626 620 45 57 65 69 65 41z"/><path d="m5396 8640c-351-40-646-181-808-383-57-72-50-135 17-163 49-20 73-7 163 85 120 122 276 202 492 252 123 29 384 37 508 15 144-25 173-21 200 31 18 34 14 69-11 99-19 22-40 30-118 45-112 22-333 31-443 19z"/><path d="m7590 8640c-120-15-216-39-234-59-9-10-19-34-22-53-5-27-1-40 21-66 32-38 51-40 187-16 114 20 385 14 493-10 232-52 403-141 522-270 33-36 71-69 84-75 61-23 119 21 119 90 0 35-8 48-72 115-92 97-168 151-299 214-182 86-363 127-594 135-71 2-164 0-205-5z"/><path d="m5135 7774c-77-17-166-58-236-110-77-56-163-175-157-216 5-34 35-34 82 0 127 91 267 134 436 135 174 1 305-39 440-134 50-35 62-40 75-29 22 18 19 38-14 96-62 108-196 209-331 248-82 24-212 29-295 10z"/><path d="m7943 7779c-73-12-152-44-219-88-110-71-223-221-194-256 19-23 38-18 90 20 205 150 530 173 765 53 33-16 81-46 108-65 26-20 54-32 62-29 21 8 18 55-6 96-123 204-361 310-606 269z"/><path d="m5787 5796c-37-34-40-60-22-151 33-160 112-315 222-435l59-63 48 37c101 77 196 108 326 108 65 0 105-6 161-25l74-25 74 25c166 55 375 18 497-89l37-33 66 71c114 122 209 322 226 481 7 60 6 63-23 93-22 22-40 30-65 30-33 0-36-2-46-47-17-68-69-135-128-164l-48-24h-565-565l-48 24c-59 29-111 96-128 164l-11 47h-58c-47 0-62-4-83-24z"/></g></svg>