<?xml version="1.0" standalone="no"?>
<!DOCTYPE svg PUBLIC "-//W3C//DTD SVG 20010904//EN"
 "http://www.w3.org/TR/2001/REC-SVG-20010904/DTD/svg10.dtd">
<svg version="1.0" xmlns="http://www.w3.org/2000/svg"
 width="2048.000000pt" height="2048.000000pt" viewBox="0 0 2048.000000 2048.000000"
 preserveAspectRatio="xMidYMid meet">
<metadata>
Created by potrace 1.11, written by Peter Selinger 2001-2013
</metadata>
<g transform="translate(0.000000,2048.000000) scale(0.100000,-0.100000)"
fill="#000000" stroke="none">
<path d="M5813 12935 c8 -18 1546 -4919 1559 -4962 l9 -33 777 0 777 0 529
1603 c291 881 531 1607 535 1614 3 7 152 -421 330 -950 178 -529 423 -1256
544 -1614 l219 -653 759 0 759 0 10 23 c14 33 1540 4964 1540 4976 0 8 -228
11 -750 11 -412 0 -750 -2 -750 -5 0 -11 -823 -2931 -829 -2942 -4 -7 -225
652 -492 1465 l-485 1477 -815 3 -814 2 -490 -1470 c-269 -808 -492 -1470
-495 -1470 -4 0 -193 661 -421 1470 l-414 1470 -799 0 c-694 0 -797 -2 -793
-15z"/>
<path d="M6357 5923 c-4 -3 -7 -62 -7 -130 l0 -123 3895 0 3895 0 0 130 0 130
-3888 0 c-2139 0 -3892 -3 -3895 -7z"/>
</g>
</svg>
