<?xml version="1.0" standalone="no"?>
<!DOCTYPE svg PUBLIC "-//W3C//DTD SVG 20010904//EN"
 "http://www.w3.org/TR/2001/REC-SVG-20010904/DTD/svg10.dtd">
<svg version="1.0" xmlns="http://www.w3.org/2000/svg"
 width="1332.000000pt" height="1332.000000pt" viewBox="0 0 1332.000000 1332.000000"
 preserveAspectRatio="xMidYMid meet">
<metadata>
Created by potrace 1.11, written by Peter Selinger 2001-2013
</metadata>
<g transform="translate(0.000000,1332.000000) scale(0.100000,-0.100000)"
fill="#000000" stroke="none">
<path d="M6370 12004 c-19 -2 -78 -9 -130 -14 -1356 -151 -2534 -1116 -2959
-2423 -104 -322 -154 -602 -171 -969 -6 -117 -10 -1444 -10 -3138 l0 -2936
-114 -102 c-220 -197 -449 -474 -611 -736 l-49 -79 26 -21 c263 -215 385 -307
612 -461 534 -361 1110 -635 1742 -829 84 -25 157 -46 163 -46 8 0 11 231 11
839 l0 839 170 -86 170 -85 0 -798 0 -797 68 -16 c571 -128 1382 -173 2008
-111 260 26 630 83 757 116 l37 10 0 797 0 797 170 86 c93 48 171 84 174 81 4
-3 6 -380 6 -839 0 -603 3 -833 11 -833 21 0 314 93 459 145 283 103 440 170
720 310 462 230 851 483 1262 819 l97 79 -51 81 c-173 279 -412 565 -637 760
l-91 80 0 2980 c0 1814 -4 3048 -10 3151 -74 1291 -811 2410 -1968 2989 -347
174 -698 281 -1118 342 -103 15 -654 28 -744 18z m1020 -1566 c0 -7 30 -86 66
-177 281 -704 755 -1329 1324 -1748 157 -115 344 -229 485 -294 39 -18 72 -36
75 -40 3 -4 40 -19 83 -33 146 -49 263 -146 331 -275 64 -122 66 -140 66 -588
0 -402 0 -402 -25 -482 -59 -184 -209 -328 -400 -381 l-59 -17 -17 -119 c-68
-491 -261 -943 -565 -1324 -84 -105 -302 -324 -408 -410 -105 -85 -296 -212
-429 -284 l-107 -58 0 -563 c0 -459 -3 -579 -15 -651 -121 -701 -834 -1129
-1507 -904 -414 139 -716 506 -777 943 -6 39 -7 244 -4 490 3 232 3 483 -1
557 l-8 136 -101 51 c-374 191 -739 523 -986 896 -39 60 -91 146 -116 191
l-45 83 2 1482 3 1483 185 67 c280 102 439 171 725 311 579 286 1061 599 1534
997 131 110 551 526 626 620 45 57 65 69 65 41z"/>
<path d="M5396 8640 c-351 -40 -646 -181 -808 -383 -57 -72 -50 -135 17 -163
49 -20 73 -7 163 85 120 122 276 202 492 252 123 29 384 37 508 15 144 -25
173 -21 200 31 18 34 14 69 -11 99 -19 22 -40 30 -118 45 -112 22 -333 31
-443 19z"/>
<path d="M7590 8640 c-120 -15 -216 -39 -234 -59 -9 -10 -19 -34 -22 -53 -5
-27 -1 -40 21 -66 32 -38 51 -40 187 -16 114 20 385 14 493 -10 232 -52 403
-141 522 -270 33 -36 71 -69 84 -75 61 -23 119 21 119 90 0 35 -8 48 -72 115
-92 97 -168 151 -299 214 -182 86 -363 127 -594 135 -71 2 -164 0 -205 -5z"/>
<path d="M5135 7774 c-77 -17 -166 -58 -236 -110 -77 -56 -163 -175 -157 -216
5 -34 35 -34 82 0 127 91 267 134 436 135 174 1 305 -39 440 -134 50 -35 62
-40 75 -29 22 18 19 38 -14 96 -62 108 -196 209 -331 248 -82 24 -212 29 -295
10z"/>
<path d="M7943 7779 c-73 -12 -152 -44 -219 -88 -110 -71 -223 -221 -194 -256
19 -23 38 -18 90 20 205 150 530 173 765 53 33 -16 81 -46 108 -65 26 -20 54
-32 62 -29 21 8 18 55 -6 96 -123 204 -361 310 -606 269z"/>
<path d="M5787 5796 c-37 -34 -40 -60 -22 -151 33 -160 112 -315 222 -435 l59
-63 48 37 c101 77 196 108 326 108 65 0 105 -6 161 -25 l74 -25 74 25 c166 55
375 18 497 -89 l37 -33 66 71 c114 122 209 322 226 481 7 60 6 63 -23 93 -22
22 -40 30 -65 30 -33 0 -36 -2 -46 -47 -17 -68 -69 -135 -128 -164 l-48 -24
-565 0 -565 0 -48 24 c-59 29 -111 96 -128 164 l-11 47 -58 0 c-47 0 -62 -4
-83 -24z"/>
</g>
</svg>
